<?xml version="1.0" encoding="UTF-8"?>
<svg width="304px" height="167px" viewBox="0 0 304 167" version="1.1" xmlns="http://www.w3.org/2000/svg" xmlns:xlink="http://www.w3.org/1999/xlink">
    <!-- Generator: Sketch 43.2 (39069) - http://www.bohemiancoding.com/sketch -->
    <title>compodoc-off</title>
    <desc>Created with Sketch.</desc>
    <defs></defs>
    <g id="Page-1" stroke="none" stroke-width="1" fill="none" fill-rule="evenodd">
        <g id="compodoc" transform="translate(76.000000, 20.000000)" fill-rule="nonzero">
            <g id="g3075" transform="translate(75.665564, 48.923168) rotate(110.000000) translate(-75.665564, -48.923168) translate(27.665564, 39.423168)">
                <polygon id="path254" fill="#C5C5C5" points="0.269952314 18.1525224 95.234978 18.1525224 95.234978 0.0254837199 0.269952314 0.0254837199"></polygon>
                <path d="M50.3709861,9.08900306 C50.3709861,5.33496307 47.3230277,2.29171215 43.5631808,2.29171215 C39.8033339,2.29171215 36.7553755,5.33496307 36.7553755,9.08900306 C36.7553755,12.8430431 39.8033339,15.886294 43.5631808,15.886294 C47.3230277,15.886294 50.3709861,12.8430431 50.3709861,9.08900306" id="path256" fill="#292929"></path>
                <polygon id="path266" fill="#757575" points="13.1879889 18.1525224 21.2181197 18.1525224 21.2181197 0.0254837199 13.1879889 0.0254837199"></polygon>
                <path d="M95.234978,9.08900306 L87.5539833,9.08900306 L87.5539833,0.0254837199 L95.234978,0.0254837199 L95.234978,9.08900306 M83.7134859,9.08900306 L72.8792753,9.15943079 L72.5265947,0.166339177 L89.8501314,0.448047302 L89.0742337,9.15943079 M72.8902661,9.08900306 L70.0971771,9.08900306 L70.0971771,0.0254837199 L72.8902661,0.0254837199 L72.8902661,9.08900306 M66.2566797,9.08900306 L50.3709861,9.08900306 L50.3709861,9.08900306 C50.3709861,5.33496307 47.3230277,2.29171215 43.5631808,2.29171215 C39.8033339,2.29171215 36.7553755,5.33496307 36.7553755,9.08900306 L21.2181197,9.08900306 L21.2181197,0.0254837199 L70.4888491,0.0959114484 L70.770993,9.15943079" id="path268" fill="#A4A4A4"></path>
                <polygon id="path258" fill="#272727" points="71.8428577 18.1525224 75.6833551 18.1525224 75.6833551 0.0254837199 71.8428577 0.0254837199"></polygon>
                <polygon id="path260" fill="#272727" points="78.1273079 18.1525224 81.9678053 18.1525224 81.9678053 0.0254837199 78.1273079 0.0254837199"></polygon>
                <path d="M13.1879889,9.08900306 L11.0931722,9.08900306 L11.0931722,0.0254837199 L13.1879889,0.0254837199 L13.1879889,9.08900306 M7.25267479,9.08900306 L0.269952314,9.08900306 L0.269952314,0.0254837199 L7.25267479,0.0254837199 L7.25267479,9.08900306" id="path278" fill="#A4A4A4"></path>
                <polygon id="path280" fill="#A4A4A4" points="7.25267479 9.08900306 11.0931722 9.08900306 11.0931722 0.0254837199 7.25267479 0.0254837199"></polygon>
                <polygon id="path282" fill="#545454" points="13.1879889 9.08900306 21.2181197 9.08900306 21.2181197 0.0254837199 13.1879889 0.0254837199"></polygon>
            </g>
            <g id="g3914" transform="translate(0.239712, 13.098588)">
                <rect id="rect3090" fill="#B6B4B4" transform="translate(22.404564, 22.271767) rotate(-45.000000) translate(-22.404564, -22.271767) " x="-2.73323664" y="16.0966223" width="50.2756018" height="12.3502897"></rect>
                <rect id="rect3090-7-2" fill="#E6E5E2" transform="translate(22.187946, 49.193152) rotate(45.000000) translate(-22.187946, -49.193152) " x="-2.94985479" y="43.0180073" width="50.2756018" height="12.3502897"></rect>
            </g>
            <g id="g3919" transform="translate(107.443287, 13.269383)">
                <polygon id="rect3090-7-2-4" fill="#ACA9A9" points="35.753148 26.820284 0.202362091 62.3161632 8.94822201 71.0485155 44.4990079 35.5526363"></polygon>
                <rect id="rect3090-7" fill="#D7D7D7" transform="translate(22.316186, 22.188955) rotate(45.000000) translate(-22.316186, -22.188955) " x="-2.82161528" y="16.0138104" width="50.2756018" height="12.3502897"></rect>
            </g>
            <g id="text3943-1-6-0" transform="translate(19.187346, 110.815739)" fill="#000000">
                <path d="M10.0124867,3.04898743 C9.92030636,3.16612715 9.82813442,3.25815673 9.73597086,3.32507618 C9.65216981,3.39201794 9.52648081,3.42548324 9.35890385,3.42547208 C9.1996894,3.42548324 9.04467296,3.37946845 8.89385453,3.28742771 C8.74301935,3.18704296 8.56286511,3.07828073 8.35339181,2.96114102 C8.14390176,2.83565729 7.89252375,2.72689506 7.59925778,2.63485432 C7.31435432,2.53446957 6.95823827,2.48427161 6.53090124,2.48426046 C5.9862433,2.48427161 5.50862508,2.58466752 5.09804659,2.78544818 C4.68745692,2.97788482 4.34390976,3.25815673 4.06739675,3.6262639 C3.79925741,3.99439338 3.598155,4.4419918 3.46408952,4.96905915 C3.33001846,5.4877797 3.26298432,6.07760566 3.26298712,6.73853701 C3.26298432,7.42458128 3.33420809,8.03532305 3.47665842,8.57076231 C3.62748244,9.10621272 3.84115374,9.5579943 4.11767235,9.92610705 C4.39418537,10.2858618 4.72935325,10.5619506 5.12318439,10.7543733 C5.51700435,10.9384352 5.9611055,11.0304648 6.45548784,11.030462 C6.949859,11.0304648 7.34787139,10.9719005 7.64953338,10.8547692 C7.95955788,10.7292771 8.21931516,10.5954159 8.42880521,10.4531856 C8.63827851,10.3025945 8.81843275,10.1687333 8.96926793,10.0516019 C9.12846563,9.92611263 9.30443023,9.86336518 9.49716175,9.86335961 C9.74853138,9.86336518 9.93706489,9.95957793 10.0627623,10.1519978 L10.9551542,11.2814518 C10.6115931,11.6830382 10.2387157,12.0218744 9.83652207,12.2979603 C9.43430887,12.5656856 9.01534552,12.78321 8.57963202,12.9505337 C8.15228102,13.1094939 7.70817987,13.2224393 7.24732857,13.2893699 C6.79484256,13.3563005 6.34236215,13.3897658 5.88988732,13.3897658 C5.09385137,13.3897658 4.34390976,13.2433551 3.64005413,12.9505337 C2.93619291,12.6493488 2.32031679,12.2142999 1.79242576,11.645387 C1.26453194,11.0764796 0.84556859,10.3820746 0.535535712,9.56217189 C0.2338821,8.73391123 0.0830552944,7.79269961 0.0830552944,6.73853701 C0.0830552944,5.79315059 0.217123566,4.91886956 0.48526011,4.11569394 C0.76177592,3.30417152 1.16398074,2.60558333 1.69187456,2.01992939 C2.21976558,1.42593422 2.87334841,0.96160315 3.65262303,0.626936184 C4.43189207,0.292297105 5.32847084,0.124970594 6.34236773,0.12495665 C7.30597785,0.124970594 8.14809139,0.279747617 8.86871673,0.589287719 C9.59770458,0.898855708 10.2512846,1.34227096 10.8294652,1.91953348 L10.0124867,3.04898743" id="path3007"></path>
                <path d="M18.3621665,0.12495665 C19.3173945,0.124970594 20.1846459,0.279747617 20.9639289,0.589287719 C21.7515688,0.898855708 22.4219102,1.3380878 22.9749529,1.906984 C23.5363499,2.47590529 23.9678821,3.17031031 24.2695497,3.99019906 C24.5711893,4.81010733 24.7220161,5.72621998 24.7220301,6.73853701 C24.7220161,7.7592343 24.5711893,8.67953012 24.2695497,9.49942444 C23.9678821,10.3193271 23.5363499,11.0179153 22.9749529,11.595189 C22.4219102,12.1724683 21.7515688,12.6158835 20.9639289,12.9254348 C20.1846459,13.2349888 19.3173945,13.3897658 18.3621665,13.3897658 C17.3985424,13.3897658 16.5229118,13.2349888 15.7352663,12.9254348 C14.9476096,12.6158835 14.2730814,12.1724683 13.7116733,11.595189 C13.1586389,11.0179153 12.7271066,10.3193271 12.4170765,9.49942444 C12.1154201,8.67953012 11.9645933,7.7592343 11.9645961,6.73853701 C11.9645933,5.72621998 12.1154201,4.81010733 12.4170765,3.99019906 C12.7271066,3.17031031 13.1586389,2.47590529 13.7116733,1.906984 C14.2730814,1.3380878 14.9476096,0.898855708 15.7352663,0.589287719 C16.5229118,0.279747617 17.3985424,0.124970594 18.3621665,0.12495665 M18.3621665,11.005363 C19.4347043,11.0053658 20.2265422,10.6456138 20.7376887,9.92610705 C21.257192,9.20660863 21.5169493,8.15245161 21.5169605,6.76363599 C21.5169493,5.37483431 21.257192,4.31649691 20.7376887,3.58861543 C20.2265422,2.86075626 19.4347043,2.4968211 18.3621665,2.49680995 C17.2728534,2.4968211 16.4642569,2.86493943 15.9363687,3.60116492 C15.4168485,4.3290464 15.1570913,5.38320063 15.1570968,6.76363599 C15.1570913,8.14408528 15.4168485,9.1982423 15.9363687,9.92610705 C16.4642569,10.6456138 17.2728534,11.0053658 18.3621665,11.005363" id="path3009"></path>
                <path d="M27.0904802,13.2015235 L27.0904802,0.325748463 L28.9883842,0.325748463 C29.3905862,0.325762407 29.6545331,0.514004732 29.7802249,0.890475439 L29.9813273,1.84423655 C30.2075647,1.59326073 30.4421842,1.36318678 30.6851857,1.15401469 C30.9365582,0.944870499 31.2005051,0.764994499 31.4770265,0.614386695 C31.761916,0.463806779 32.0635696,0.346678221 32.3819873,0.263001022 C32.7087731,0.170985384 33.064892,0.124970594 33.4503438,0.12495665 C34.2631244,0.124970594 34.9292761,0.346678221 35.448799,0.790079532 C35.9766845,1.22514241 36.37051,1.80659924 36.6302757,2.53445841 C36.8313669,2.10778696 37.0827449,1.7438518 37.3844097,1.44265293 C37.6860521,1.13311282 38.0170332,0.882123057 38.3773528,0.689683625 C38.7376501,0.497272081 39.1189068,0.355044547 39.5211228,0.263001022 C39.9316929,0.170985384 40.342277,0.124970594 40.752875,0.12495665 C41.4650987,0.124970594 42.0977306,0.233732826 42.650779,0.451243347 C43.2037939,0.668781755 43.6688432,0.986702127 44.0459269,1.40500446 C44.4229772,1.82333189 44.7078723,2.33367775 44.9006122,2.93604204 C45.101695,3.53842864 45.2022462,4.22865049 45.2022658,5.00670762 L45.2022658,13.2015235 L42.0977474,13.2015235 L42.0977474,5.00670762 C42.0977306,4.18681887 41.9175792,3.57189394 41.5572847,3.16193283 C41.1969622,2.74362771 40.6690684,2.53446957 39.9736032,2.53445841 C39.6551771,2.53446957 39.3577131,2.58885068 39.0812113,2.69760176 C38.8130635,2.80637515 38.5742544,2.96533533 38.3647839,3.17448232 C38.1636704,3.37528529 38.0044643,3.63045822 37.8871657,3.94000111 C37.7698448,4.24956631 37.7111899,4.60513236 37.7112011,5.00670762 L37.7112011,13.2015235 L34.5941138,13.2015235 L34.5941138,5.00670762 C34.5941054,4.14498724 34.4181408,3.51751282 34.06622,3.12428436 C33.7226616,2.73107822 33.2157188,2.53446957 32.545383,2.53445841 C32.092897,2.53446957 31.669744,2.64741496 31.2759241,2.8732946 C30.8904722,3.09083022 30.5301665,3.39201794 30.1949986,3.77685776 L30.1949986,13.2015235 L27.0904802,13.2015235" id="path3011"></path>
                <path d="M48.153209,17.4056021 L48.153209,0.325748463 L50.051113,0.325748463 C50.453315,0.325762407 50.7172619,0.514004732 50.8429537,0.890475439 L51.0943317,2.08267683 C51.6138407,1.48868166 52.2087686,1.00761794 52.8791156,0.639485672 C53.5578306,0.271381291 54.3496686,0.0873221287 55.2546378,0.0873081848 C55.9584878,0.0873221287 56.599499,0.233732826 57.1776795,0.526540277 C57.7642171,0.819375616 58.2669731,1.24605822 58.6859476,1.80658809 C59.1132791,2.35877673 59.4400677,3.04481543 59.6663218,3.86470418 C59.9009274,4.67624612 60.0182371,5.60909142 60.0182511,6.66324008 C60.0182371,7.6253731 59.8883585,8.51638677 59.6286151,9.3362811 C59.3688439,10.1561838 58.9959693,10.8673215 58.509983,11.4696941 C58.0323536,12.0720723 57.4499946,12.5447697 56.7629058,12.8877863 C56.0841768,13.2224393 55.3216635,13.3897658 54.4753659,13.3897658 C53.7463613,13.3897658 53.1262984,13.2810036 52.6151687,13.0634791 C52.1124071,12.8375911 51.6599267,12.5280371 51.2577274,12.134817 L51.2577274,17.4056021 L48.153209,17.4056021 M54.1862812,2.53445841 C53.5410721,2.53446957 52.9880405,2.67251394 52.5271864,2.94859153 C52.0747004,3.2163251 51.6515474,3.59699291 51.2577274,4.09059497 L51.2577274,9.86335961 C51.6096511,10.2984113 51.9909077,10.6037822 52.4014974,10.7794723 C52.8204551,10.9468016 53.2729355,11.0304648 53.7589386,11.030462 C54.2281692,11.0304648 54.6513222,10.9426184 55.0283976,10.7669228 C55.4054562,10.5912327 55.7238683,10.3235103 55.983634,9.96375551 C56.2517622,9.60400909 56.4570514,9.15222751 56.5995101,8.60841077 C56.7419465,8.05623886 56.8131703,7.40784863 56.8131814,6.66324008 C56.8131703,5.91027914 56.7503258,5.2744384 56.6246479,4.75571785 C56.507327,4.22865049 56.3355548,3.80196789 56.109323,3.47567004 C55.8830744,3.1493945 55.6065586,2.91095422 55.2797756,2.7603492 C54.9613551,2.6097665 54.5968569,2.53446957 54.1862812,2.53445841" id="path3013"></path>
                <path d="M68.1467936,0.12495665 C69.1020217,0.124970594 69.9692758,0.279747617 70.748556,0.589287719 C71.5361987,0.898855708 72.2065373,1.3380878 72.7595801,1.906984 C73.3209798,2.47590529 73.7525121,3.17031031 74.0541768,3.99019906 C74.3558193,4.81010733 74.5066461,5.72621998 74.5066573,6.73853701 C74.5066461,7.7592343 74.3558193,8.67953012 74.0541768,9.49942444 C73.7525121,10.3193271 73.3209798,11.0179153 72.7595801,11.595189 C72.2065373,12.1724683 71.5361987,12.6158835 70.748556,12.9254348 C69.9692758,13.2349888 69.1020217,13.3897658 68.1467936,13.3897658 C67.1831723,13.3897658 66.3075389,13.2349888 65.5198934,12.9254348 C64.7322395,12.6158835 64.0577085,12.1724683 63.4963004,11.595189 C62.9432688,11.0179153 62.5117366,10.3193271 62.2017037,9.49942444 C61.9000501,8.67953012 61.7492233,7.7592343 61.7492233,6.73853701 C61.7492233,5.72621998 61.9000501,4.81010733 62.2017037,3.99019906 C62.5117366,3.17031031 62.9432688,2.47590529 63.4963004,1.906984 C64.0577085,1.3380878 64.7322395,0.898855708 65.5198934,0.589287719 C66.3075389,0.279747617 67.1831723,0.124970594 68.1467936,0.12495665 M68.1467936,11.005363 C69.2193314,11.0053658 70.0111721,10.6456138 70.5223158,9.92610705 C71.041822,9.20660863 71.3015793,8.15245161 71.3015876,6.76363599 C71.3015793,5.37483431 71.041822,4.31649691 70.5223158,3.58861543 C70.0111721,2.86075626 69.2193314,2.4968211 68.1467936,2.49680995 C67.0574833,2.4968211 66.2488841,2.86493943 65.7209958,3.60116492 C65.2014785,4.3290464 64.9417212,5.38320063 64.941724,6.76363599 C64.9417212,8.14408528 65.2014785,9.1982423 65.7209958,9.92610705 C66.2488841,10.6456138 67.0574833,11.0053658 68.1467936,11.005363" id="path3015"></path>
            </g>
            <g id="text3947-4-8-1" transform="translate(95.717984, 105.517066)" fill="#000000">
                <path d="M9.97433308,18.315532 C9.75646096,18.315532 9.63077196,18.2067698 9.59726606,17.9892453 L9.47157706,16.0189757 C8.91853426,16.7719478 8.2733335,17.37014 7.53596638,17.8135525 C6.79858251,18.2569678 5.96903508,18.4786754 5.04732409,18.4786754 C3.50553338,18.4786754 2.30730099,17.9474137 1.45261855,16.8848904 C0.597930527,15.8223698 0.17058791,14.2285876 0.170590703,12.1035353 C0.17058791,11.1916142 0.287897648,10.3424321 0.522519917,9.55598917 C0.765515866,8.7611994 1.11744508,8.0751607 1.57830756,7.49787308 C2.03916445,6.91224145 2.60476497,6.45209633 3.27510912,6.11742936 C3.95382416,5.78279029 4.73309599,5.61546377 5.61292461,5.61544983 C6.4592222,5.61546377 7.19240806,5.77442396 7.8124822,6.09233039 C8.43253678,6.40189838 8.9729995,6.85786033 9.43387036,7.46022462 L9.43387036,0.0560264935 L10.6279159,0.0560264935 L10.6279159,18.315532 L9.97433308,18.315532 M5.3866844,17.5123648 C6.20784419,17.5123676 6.95359895,17.2990263 7.62394869,16.8723409 C8.30266093,16.4456611 8.90596536,15.8474688 9.43387036,15.077764 L9.43387036,8.52693113 C8.95624097,7.80743828 8.42415751,7.30127559 7.83762,7.00844304 C7.25944219,6.70726647 6.5974801,6.5566754 5.85173372,6.55666146 C5.11435264,6.5566754 4.46914908,6.69053661 3.91612305,6.95824508 C3.36308584,7.22597866 2.89803652,7.60664647 2.52097509,8.10024852 C2.15228455,8.58550656 1.87157911,9.17114935 1.67885876,9.85717689 C1.49451209,10.5348576 1.40234016,11.2836438 1.40234295,12.1035353 C1.40234016,13.9608652 1.74170047,15.3287566 2.42042389,16.207218 C3.1075182,17.0773186 4.0962717,17.5123676 5.3866844,17.5123648" id="path3018"></path>
                <path d="M19.6971625,5.62799932 C20.5937356,5.62801326 21.3939556,5.78279029 22.0978224,6.09233039 C22.8100518,6.39353205 23.4091666,6.82439503 23.8951752,7.38492769 C24.3811615,7.94548266 24.7498493,8.62315503 25.0012385,9.4179448 C25.2609846,10.2043878 25.3908632,11.0870351 25.3908744,12.0658868 C25.3908632,13.0447525 25.2609846,13.9273999 25.0012385,14.7138289 C24.7498493,15.5002663 24.3811615,16.1737555 23.8951752,16.7342965 C23.4091666,17.2948431 22.8100518,17.7257089 22.0978224,18.0268938 C21.3939556,18.3280815 20.5937356,18.4786754 19.6971625,18.4786754 C18.8005753,18.4786754 17.9961657,18.3280815 17.2839336,18.0268938 C16.5800723,17.7257089 15.9809548,17.2948431 15.4865808,16.7342965 C15.0005805,16.1737555 14.6277031,15.5002663 14.3679487,14.7138289 C14.1165706,13.9273999 13.9908816,13.0447525 13.9908816,12.0658868 C13.9908816,11.0870351 14.1165706,10.2043878 14.3679487,9.4179448 C14.6277031,8.62315503 15.0005805,7.94548266 15.4865808,7.38492769 C15.9809548,6.82439503 16.5800723,6.39353205 17.2839336,6.09233039 C17.9961657,5.78279029 18.8005753,5.62801326 19.6971625,5.62799932 M19.6971625,17.5374638 C20.4429088,17.5374665 21.092302,17.4119717 21.645342,17.1609791 C22.2067445,16.9016258 22.6717939,16.5335075 23.04049,16.0566241 C23.4175458,15.5797464 23.6982513,15.0066559 23.8826063,14.3373442 C24.066939,13.6596774 24.159111,12.902525 24.1591221,12.0658868 C24.159111,11.237629 24.066939,10.4846597 23.8826063,9.80697894 C23.6982513,9.12931772 23.4175458,8.55204126 23.04049,8.07514955 C22.6717939,7.58991382 22.2067445,7.21761233 21.645342,6.95824508 C21.092302,6.69890015 20.4429088,6.56922489 19.6971625,6.56921095 C18.9514021,6.56922489 18.2978193,6.69890015 17.736414,6.95824508 C17.1833796,7.21761233 16.7183302,7.58991382 16.341266,8.07514955 C15.9725755,8.55204126 15.69187,9.12931772 15.4991497,9.80697894 C15.314803,10.4846597 15.2226311,11.237629 15.2226339,12.0658868 C15.2226311,12.902525 15.314803,13.6596774 15.4991497,14.3373442 C15.69187,15.0066559 15.9725755,15.5797464 16.341266,16.0566241 C16.7183302,16.5335075 17.1833796,16.9016258 17.736414,17.1609791 C18.2978193,17.4119717 18.9514021,17.5374665 19.6971625,17.5374638" id="path3020"></path>
                <path d="M37.1954293,7.49787308 C37.1535218,7.53971587 37.1116254,7.57736433 37.0697403,7.61081848 C37.036212,7.63591745 36.9859364,7.6484781 36.9189135,7.64846694 C36.8351096,7.6484781 36.7219895,7.59409698 36.5795532,7.48532359 C36.4370945,7.36820619 36.2443741,7.24271131 36.0013837,7.10883894 C35.7583766,6.97498889 35.4525334,6.85367717 35.083854,6.74490378 C34.7235372,6.62778917 34.2836256,6.56922489 33.7641195,6.56921095 C33.0434969,6.56922489 32.402483,6.69890015 31.8410777,6.95824508 C31.2880405,7.20924601 30.8188015,7.57318117 30.4333608,8.05005057 C30.0479118,8.52694228 29.7546374,9.10421875 29.5535378,9.78187996 C29.3608119,10.4595607 29.2644503,11.2208963 29.2644531,12.0658868 C29.2644503,12.9443566 29.3650015,13.7224249 29.5661067,14.4000917 C29.7755856,15.0777668 30.0688599,15.6508601 30.4459297,16.1193716 C30.8229912,16.5795223 31.2796612,16.9309079 31.8159399,17.1735286 C32.3522074,17.4161548 32.9471353,17.5374665 33.6007238,17.5374638 C34.2040226,17.5374665 34.7067786,17.4663528 35.1089918,17.3241225 C35.5195675,17.1818977 35.8547382,17.0271207 36.1145039,16.8597914 C36.3826292,16.6924677 36.5921109,16.5376906 36.7429489,16.3954603 C36.8937645,16.2532356 37.0194535,16.1821218 37.1200159,16.182119 C37.2205559,16.1821218 37.3043486,16.2239534 37.3713939,16.3076139 L37.6856164,16.7091975 C37.4928821,16.9601901 37.2498834,17.1944472 36.9566202,17.4119689 C36.6633347,17.6294961 36.3323536,17.8177385 35.963677,17.9766959 C35.5949809,18.135656 35.1927761,18.2569678 34.7570626,18.340631 C34.3297116,18.4326606 33.8814208,18.4786754 33.4121902,18.4786754 C32.6161543,18.4786754 31.8871581,18.3364479 31.2252016,18.0519928 C30.5716159,17.7591742 30.0060154,17.3408579 29.5284,16.7970439 C29.0591583,16.2448692 28.6904705,15.57138 28.4223368,14.7765763 C28.1625767,13.981781 28.032698,13.0782178 28.0327008,12.0658868 C28.032698,11.1121341 28.1583871,10.2420362 28.4097679,9.45559326 C28.6611431,8.66916982 29.0298308,7.99149745 29.5158311,7.42257615 C30.0018258,6.85367717 30.5925641,6.41444787 31.2880461,6.10487988 C31.9918989,5.78697345 32.7963085,5.62801326 33.701275,5.62799932 C34.5140555,5.62801326 35.2346724,5.75769131 35.8631258,6.01703346 C36.4915597,6.27640349 37.0404017,6.62778917 37.5096518,7.07119048 L37.1954293,7.49787308" id="path3022"></path>
            </g>
        </g>
        <rect id="Rectangle" stroke="#979797" x="0.5" y="0.5" width="303" height="166"></rect>
    </g>
</svg>